# xmcd
#
# Track frame offsets:
#	282495
#	283245
#	283995
#	284745
#	285495
#	286245
#	286995
#	287745
#	288495
#	289245
#	289995
#	290745
#	291495
#	292245
#	292995
#	293745
#	305895
#
# Disc length: 4279 seconds
#
# Revision: 0
# Processed by: cddbd v1.4PL0 Copyright (c) Steve Scherf et al.
# Submitted via: dBpowerAMP V4.0
#
DISCID=6e020111
DTITLE=T(윤미래) - to my love
DYEAR=1900
DGENRE=Blues
TTITLE0=Unforgettable
TTITLE1=To my love
TTITLE2=Tuesday
TTITLE3=선물
TTITLE4=To my love(Eng. version)
TTITLE5=끝없는 바다 저편에서
TTITLE6=One day
TTITLE7=Because I love you(with bobby kim)
TTITLE8=집으로 와
TTITLE9=나는
TTITLE10=인연
TTITLE11=Why me?
TTITLE12=Gotta get love
TTITLE13=찬바람아!
TTITLE14=Because I love you(Eng. version)
TTITLE15=너(Sad but true)
TTITLE16=DATA
EXTD=
EXTT0=
EXTT1=
EXTT2=
EXTT3=
EXTT4=
EXTT5=
EXTT6=
EXTT7=
EXTT8=
EXTT9=
EXTT10=
EXTT11=
EXTT12=
EXTT13=
EXTT14=
EXTT15=
EXTT16=
PLAYORDER=
